<svg xmlns="http://www.w3.org/2000/svg" viewBox="0 0 7 13.857"><defs><style>.a{fill:#fff;}</style></defs><g transform="translate(-76.703)"><path class="a" d="M76.926,7.38h1.519v6.253a.223.223,0,0,0,.224.224h2.576a.223.223,0,0,0,.224-.224V7.41h1.746a.224.224,0,0,0,.222-.2l.265-2.3a.223.223,0,0,0-.222-.249H81.468V3.218c0-.435.234-.656.7-.656h1.315a.223.223,0,0,0,.223-.224V.225A.223.223,0,0,0,83.479,0H81.667l-.083,0a3.473,3.473,0,0,0-2.271.856,2.381,2.381,0,0,0-.792,2.117V4.661H76.926a.223.223,0,0,0-.224.224V7.157A.224.224,0,0,0,76.926,7.38Z" transform="translate(0)"/></g></svg>