<svg xmlns="http://www.w3.org/2000/svg" viewBox="0 0 18 18">
  <defs>
    <style>
      .cls-1 {
        fill: lightgrey;
      }
    </style>
  </defs>
  <path id="dribble" class="cls-1" d="M9,18a8.85,8.85,0,0,1-4.518-1.207,9,9,0,0,1-3.275-3.275A8.85,8.85,0,0,1,0,9,8.85,8.85,0,0,1,1.207,4.482,9,9,0,0,1,4.483,1.207,8.843,8.843,0,0,1,9,0a8.85,8.85,0,0,1,4.518,1.207,9,9,0,0,1,3.275,3.275A8.845,8.845,0,0,1,18,9a8.85,8.85,0,0,1-1.207,4.518,9,9,0,0,1-3.275,3.275A8.845,8.845,0,0,1,9,18ZM4.1,14.931h0A7.585,7.585,0,0,0,9,16.688a7.7,7.7,0,0,0,3-.609,31.754,31.754,0,0,0-1.64-5.837h-.024l-.022.012c-.115.043-.274.1-.5.193-.2.076-.585.264-1.184.574a15.678,15.678,0,0,0-1.606.961,10.221,10.221,0,0,0-1.535,1.342,6.262,6.262,0,0,0-1.207,1.734Zm9.3-5.176a10.455,10.455,0,0,0-1.606.124,33.151,33.151,0,0,1,1.5,5.494,7.708,7.708,0,0,0,3.293-5.154A11.575,11.575,0,0,0,13.406,9.755ZM9.212,7.664A27.544,27.544,0,0,1,1.335,8.752H1.324A2.334,2.334,0,0,0,1.312,9a7.594,7.594,0,0,0,.516,2.772,7.726,7.726,0,0,0,1.453,2.36,9.928,9.928,0,0,1,1.448-1.95A10.513,10.513,0,0,1,6.4,10.723c.523-.356,1.037-.676,1.529-.95a9.36,9.36,0,0,1,1.166-.562l.434-.152.152-.041a.985.985,0,0,0,.153-.052C9.665,8.576,9.462,8.15,9.212,7.664Zm3.855.9c.234,0,.506.006.809.018.278.012.523.027.75.047.252.021.463.042.662.065.237.028.421.053.563.076l.427.07c.1.016.194.033.293.053l.116.023a7.544,7.544,0,0,0-1.745-4.8l-.012.012c-.089.119-.16.21-.223.287a6.726,6.726,0,0,1-.509.522,9.9,9.9,0,0,1-.833.709,11.938,11.938,0,0,1-1.171.761,12.06,12.06,0,0,1-1.542.756c.214.453.373.8.516,1.113.013.039.032.092.058.16l.013.034,0,.011a1.424,1.424,0,0,0,.088.193c.279-.039.573-.066.873-.082C12.533,8.574,12.823,8.566,13.066,8.566ZM5.719,2.051A7.708,7.708,0,0,0,1.477,7.418h.013A27.848,27.848,0,0,0,8.578,6.48,40.265,40.265,0,0,0,5.719,2.051ZM9,1.312a7.8,7.8,0,0,0-1.816.223,33.492,33.492,0,0,1,2.883,4.476A10.927,10.927,0,0,0,11.59,5.3a10.453,10.453,0,0,0,1.13-.721,7.506,7.506,0,0,0,.768-.668,4.991,4.991,0,0,0,.439-.475l.147-.2A7.439,7.439,0,0,0,9,1.312Z"/>
</svg>
