<svg xmlns="http://www.w3.org/2000/svg" xmlns:xlink="http://www.w3.org/1999/xlink" viewBox="0 0 595 574"><defs><style>.a{fill:#fff;}.b{fill:url(#c);}.c,.f{fill:#e1e8ee;}.d{fill:url(#d);}.e{fill:url(#e);}.f{opacity:0.57;}.g{filter:url(#f);}.h{filter:url(#a);}</style><filter id="a" x="0" y="0" width="422" height="574" filterUnits="userSpaceOnUse"><feOffset dy="36" input="SourceAlpha"/><feGaussianBlur stdDeviation="21.5" result="b"/><feFlood flood-opacity="0.2"/><feComposite operator="in" in2="b"/><feComposite in="SourceGraphic"/></filter><linearGradient id="c" y1="0.5" x2="1" y2="0.5" gradientUnits="objectBoundingBox"><stop offset="0" stop-color="#ff5480"/><stop offset="1" stop-color="#ffb4a7"/></linearGradient><linearGradient id="d" x1="1" y1="0.5" x2="0" y2="0.5" gradientUnits="objectBoundingBox"><stop offset="0" stop-color="#20d2dc"/><stop offset="1" stop-color="#70aff9"/></linearGradient><linearGradient id="e" x1="-0.737" y1="1.195" x2="1.3" y2="0.352" gradientUnits="objectBoundingBox"><stop offset="0" stop-color="#a17af1"/><stop offset="1" stop-color="#f45d94"/></linearGradient><filter id="f" x="198" y="131" width="397" height="384" filterUnits="userSpaceOnUse"><feOffset dy="36" input="SourceAlpha"/><feGaussianBlur stdDeviation="21.5" result="g"/><feFlood flood-opacity="0.2"/><feComposite operator="in" in2="g"/><feComposite in="SourceGraphic"/></filter></defs><g transform="translate(-619.5 -103.5)"><g transform="translate(684 132)"><g class="h" transform="matrix(1, 0, 0, 1, -64.5, -28.5)"><rect class="a" width="293" height="445" rx="12" transform="translate(64.5 28.5)"/></g><g transform="translate(30 77)"><rect class="b" width="52" height="52" rx="4"/><rect class="c" width="166.342" height="8" rx="4" transform="translate(64)"/><rect class="c" width="133" height="8" rx="4" transform="translate(64 18)"/></g><g transform="translate(30 159)"><rect class="d" width="52" height="52" rx="4"/><rect class="c" width="166.342" height="8" rx="4" transform="translate(64)"/><rect class="c" width="111" height="8" rx="4" transform="translate(64 18)"/></g><g transform="translate(30 243)"><rect class="e" width="52" height="52" rx="4"/><rect class="c" width="166.342" height="8" rx="4" transform="translate(64)"/><rect class="c" width="83" height="8" rx="4" transform="translate(64 18)"/></g></g><g transform="translate(882 263)"><g class="g" transform="matrix(1, 0, 0, 1, -262.5, -159.5)"><rect class="a" width="268" height="255" rx="12" transform="translate(262.5 159.5)"/></g><rect class="c" width="142.5" height="8" rx="4" transform="translate(92.5 40)"/><rect class="c" width="85.09" height="8" rx="4" transform="translate(92.5 58)"/><rect class="c" width="199" height="8" rx="4" transform="translate(36 98)"/><rect class="c" width="199" height="8" rx="4" transform="translate(36 116)"/><rect class="c" width="175" height="8" rx="4" transform="translate(36 134)"/><rect class="f" width="55" height="4" rx="2" transform="translate(65 189)"/><rect class="f" width="41" height="3" rx="1.5" transform="translate(65 198)"/><rect class="d" width="41" height="41" rx="6" transform="translate(36 40)"/><path class="c" d="M8,17.455a52.715,52.715,0,0,1-7.415-.47L0,16.883v-.594c0-3.1,1.371-4.922,4.192-5.584a1.506,1.506,0,0,0,1.176-1.14A5.584,5.584,0,0,1,3.65,5.908,6.027,6.027,0,0,1,5.064,1.35,3.962,3.962,0,0,1,8,0a3.963,3.963,0,0,1,2.936,1.35,6.019,6.019,0,0,1,1.414,4.558,5.578,5.578,0,0,1-1.718,3.657,1.506,1.506,0,0,0,1.177,1.14C14.629,11.367,16,13.193,16,16.289v.594l-.585.1A52.724,52.724,0,0,1,8,17.455ZM8,1.412a2.558,2.558,0,0,0-1.892.89A4.59,4.59,0,0,0,5.056,5.781,4.129,4.129,0,0,0,6.573,8.73l.349.257-.071.427a3.047,3.047,0,0,1-2.336,2.667,3.56,3.56,0,0,0-3.082,3.606A57.359,57.359,0,0,0,8,16.043a57.325,57.325,0,0,0,6.568-.356,3.559,3.559,0,0,0-3.082-3.606A3.047,3.047,0,0,1,9.149,9.414l-.072-.427.349-.257a4.129,4.129,0,0,0,1.516-2.949A4.59,4.59,0,0,0,9.892,2.3,2.559,2.559,0,0,0,8,1.412Z" transform="translate(39 189)"/></g></g></svg>