<svg xmlns="http://www.w3.org/2000/svg" viewBox="0 0 21.795 17.714">
  <defs>
    <style>
      .cls-1 {
        fill: lightgrey;
      }
    </style>
  </defs>
  <path id="twitter" class="cls-1" d="M21.753,2.109a9.012,9.012,0,0,1-2.566.7A4.491,4.491,0,0,0,21.151.34a9.228,9.228,0,0,1-2.838,1.075,4.467,4.467,0,0,0-7.73,3.049A4.557,4.557,0,0,0,10.7,5.486,12.67,12.67,0,0,1,1.488.83a4.386,4.386,0,0,0-.6,2.248A4.467,4.467,0,0,0,2.871,6.8,4.463,4.463,0,0,1,.847,6.239v.054a4.472,4.472,0,0,0,3.584,4.384,4.542,4.542,0,0,1-1.178.155,4.4,4.4,0,0,1-.83-.079,4.479,4.479,0,0,0,4.179,3.1,8.955,8.955,0,0,1-5.541,1.911A9.256,9.256,0,0,1,0,15.707a12.7,12.7,0,0,0,6.861,2.007,12.622,12.622,0,0,0,12.715-12.7c0-.191,0-.381-.014-.572A9.025,9.025,0,0,0,21.8,2.126Z" transform="translate(0 0)"/>
</svg>
