<svg xmlns="http://www.w3.org/2000/svg" viewBox="0 0 14.041 11.496"><defs><style>.a{fill:#fff;}</style></defs><g transform="translate(0.002 -28.097)"><path class="a" d="M13.72,29.424a5.322,5.322,0,0,1-.679.247,3,3,0,0,0,.611-1.075.226.226,0,0,0-.331-.264,5.344,5.344,0,0,1-1.58.624,3.015,3.015,0,0,0-5.124,2.154,3.075,3.075,0,0,0,.025.389,7.717,7.717,0,0,1-5.3-2.81.227.227,0,0,0-.371.029,3.019,3.019,0,0,0,.309,3.469,2.554,2.554,0,0,1-.4-.18.226.226,0,0,0-.336.193c0,.013,0,.027,0,.04a3.025,3.025,0,0,0,1.476,2.592c-.077-.008-.153-.019-.229-.033a.226.226,0,0,0-.258.292,3.013,3.013,0,0,0,2.208,2.02,5.332,5.332,0,0,1-2.85.814,5.453,5.453,0,0,1-.638-.037A.226.226,0,0,0,.1,38.3a8.129,8.129,0,0,0,4.4,1.288,7.82,7.82,0,0,0,6.059-2.661,8.435,8.435,0,0,0,2.1-5.5c0-.083,0-.166,0-.249A5.86,5.86,0,0,0,14,29.757a.226.226,0,0,0-.28-.333Z" transform="translate(0 0)"/></g></svg>